<?xml version="1.0" encoding="UTF-8" standalone="no"?>
<!DOCTYPE svg PUBLIC "-//W3C//DTD SVG 1.1//EN" "http://www.w3.org/Graphics/SVG/1.1/DTD/svg11.dtd">
<svg width="100%" height="100%" viewBox="0 0 96 96" version="1.1" xmlns="http://www.w3.org/2000/svg" xmlns:xlink="http://www.w3.org/1999/xlink" xml:space="preserve" xmlns:serif="http://www.serif.com/" style="fill-rule:evenodd;clip-rule:evenodd;">
    <g transform="matrix(1.11058,0,0,1.11058,-5.81637,-6.06999)">
        <path d="M48,8L16,24L16,48C16,68 30,84 48,90C66,84 80,68 80,48L80,24L48,8Z" style="fill:url(#_Linear1);fill-rule:nonzero;stroke:rgb(180,83,9);stroke-width:2px;"/>
    </g>
    <g transform="matrix(1.11058,0,0,1.11058,48.0023,59.7859)">
        <text x="-16.61px" y="0px" style="font-family:'Helvetica';font-size:46px;fill:white;">D</text>
    </g>
    <g transform="matrix(1.11058,0,0,1.11058,-5.81637,-10.07)">
        <path d="M66,71.801L66,72.199C66,73.193 65.193,74 64.199,74L31.801,74C30.807,74 30,73.193 30,72.199L30,71.801C30,70.807 30.807,70 31.801,70L64.199,70C65.193,70 66,70.807 66,71.801Z" style="fill:white;fill-opacity:0.6;"/>
    </g>
    <defs>
        <linearGradient id="_Linear1" x1="0" y1="0" x2="1" y2="0" gradientUnits="userSpaceOnUse" gradientTransform="matrix(64,82,-82,64,16,8)"><stop offset="0" style="stop-color:rgb(245,158,11);stop-opacity:1"/><stop offset="1" style="stop-color:rgb(217,119,6);stop-opacity:1"/></linearGradient>
    </defs>
</svg>
